/* XPM */
static char *_2f5b05a7aab4026d157f03ede86b35d82IN92uZiwcewFWW[] = {
/* columns rows colors chars-per-pixel */
"30 30 131 2 ",
"   c None",
".  c #2B282B",
"X  c #2B282C",
"o  c #2B292D",
"O  c #2C2A2D",
"+  c #3D2B36",
"@  c #3B3231",
"#  c #452A32",
"$  c #412C36",
"%  c #432F37",
"&  c #403532",
"*  c #403533",
"=  c #423734",
"-  c #463934",
";  c #443B38",
":  c #453D3A",
">  c #65333F",
",  c #564039",
"<  c #57403A",
"1  c #57413A",
"2  c #58423A",
"3  c #59423A",
"4  c #61483B",
"5  c #624A3A",
"6  c #634C3B",
"7  c #64483E",
"8  c #5B3541",
"9  c #5D3542",
"0  c #543E45",
"q  c #623944",
"w  c #70424A",
"e  c #74454E",
"r  c #675243",
"t  c #64564D",
"y  c #67584D",
"u  c #675A4F",
"i  c #685A4F",
"p  c #675A50",
"a  c #717379",
"s  c #976742",
"d  c #986944",
"f  c #996A45",
"g  c #986B47",
"h  c #9A6C46",
"j  c #95624C",
"k  c #936848",
"l  c #936948",
"z  c #9B6D48",
"x  c #9A6E4A",
"c  c #9C6F49",
"v  c #9F6F49",
"b  c #9D704A",
"n  c #A0724B",
"m  c #A46A50",
"M  c #A66B51",
"N  c #A66C51",
"B  c #AB6F51",
"V  c #A96D52",
"C  c #B67E51",
"Z  c #8E6A6D",
"A  c #8F6B70",
"S  c #BA9D7F",
"D  c #C48356",
"F  c #C88853",
"G  c #C98B56",
"H  c #CF845C",
"J  c #D3885B",
"K  c #D3895C",
"L  c #D58A5C",
"P  c #D78B5D",
"I  c #D98D5E",
"U  c #DA8D5E",
"Y  c #EF9A54",
"T  c #E0995C",
"R  c #E5995E",
"E  c #E69B5E",
"W  c #E69B5F",
"Q  c #E99B5D",
"!  c #E89C5F",
"~  c #E99C5F",
"^  c #E99D5F",
"/  c #EB9E5F",
"(  c #EE9F5D",
")  c #F3A15D",
"_  c #F0A15E",
"`  c #F5A45F",
"'  c #D98F60",
"]  c #D39C6C",
"[  c #EBA266",
"{  c #EDA567",
"}  c #EFA566",
"|  c #EFA667",
" . c #EEA668",
".. c #EFA668",
"X. c #F2A461",
"o. c #F7A762",
"O. c #F1A868",
"+. c #F0AB6F",
"@. c #F2AA71",
"#. c #9A8087",
"$. c #829398",
"%. c #D2AD87",
"&. c #D2B08D",
"*. c #D2B18E",
"=. c #D2B28F",
"-. c #D7B490",
";. c #EBBB8B",
":. c #EBBB8C",
">. c #EBBD8F",
",. c #F7BD88",
"<. c #F0BE8D",
"1. c #C0B1AC",
"2. c #C0BCBA",
"3. c #F3C08E",
"4. c #F8C28D",
"5. c #F9C28E",
"6. c #F9C48F",
"7. c #FBC48E",
"8. c #FDC58F",
"9. c #FEC58F",
"0. c #FAC591",
"q. c #DFC4AA",
"w. c #EFCDA6",
"e. c #F4CFA6",
"r. c #FFD2A1",
"t. c #BEC0C4",
"y. c #E4DDC9",
"u. c #E1E7DC",
"i. c #DCEDE7",
"p. c #D5ECF0",
"a. c #E4EEE3",
/* pixels */
"    o o o o . . . . . . . . . . . . . . . . . . . X X .     ",
"    5 r t t u p p p p i p p p p p i p p p p p p p t i t     ",
"o 5 C ] %.-.&.&.&.&.&.&.&.&.&.&.&.&.&.&.&.&.&.&.&.&.-.S t . ",
"o 5 D @.,.7.7.7.7.0.9.9.9.9.9.9.9.9.9.0.9.9.7.7.7.0.r.-.i . ",
"O 3 B ' [ O. . . . .{ { { { { {  . .{ { {  . .X.{ +.0.&.i . ",
"O : m K Q ` _ F z d z z h d s s d d z z h z F ( ) { <.&.p . ",
"O > n L ~ X.T l - @ & & = ; : : ; = * * @ - j T _ O.7.&.p . ",
"O 4 N P ~ G l 7 % + $ # 0 a $.$.a 0 # $ + % r k F { 7.&.p . ",
"O 1 m U W n - % 9 9 q w Z 2.i.i.2.Z q q 9 9 $ - v { 9.&.p . ",
"O 1 N U W b @ + 9 q e #.1.w.w.w.w.1.#.e q 9 + * d { 9.&.p . ",
"O 1 N U W b & $ q e Z t.u.>.Q Q >.u.t.Z e q % * z  .9.&.p . ",
"O 1 N U W b @ # w #.t.p.a.:.Y Y >.a.p.t.#.q # - x  .9.&.p . ",
"O 1 m U W b = 0 Z 1.u.a.y.:. . .;.y.a.u.1.Z 0 = h { 9.&.p . ",
"O 1 N U W h ; a 2.w.>.:.:.<.<.<.>.:.;.>.q.2.a - d { 9.&.p . ",
"O , m ' W l @ $.i.w.( Y O.<.e.e.3. .Y ( w.i.$.: s { 9.&.p . ",
"O > V U T k 0 $.i.w.( Y O.4.e.e.3. .Y _ w.i.$.: s { 9.&.p . ",
"O 1 N U W h ; a 2.w.:.;.;.;.<.<.<.<.:.>.q.2.a ; d  .9.&.p . ",
"O 1 N U W b = 0 A 1.i.a.y.;.} } :.y.a.u.1.Z 0 * d { 9.&.p . ",
"O 1 n ' W b @ # e #.t.p.a.:.Y Y :.a.p.t.#.q # * z { 9.&.p . ",
"O 1 N P W b = $ q e A t.u.:.( ( >.u.t.A e q # * z { 9.&.p . ",
"O 3 m U W x @ + 9 q e #.1.w.w.w.q.1.#.e q q + + h  .0.&.p . ",
"O 3 m U W n - * 8 9 q q Z 2.i.i.2.Z w q q q # - z { 9.&.p . ",
"O 1 m U Q G k r % + $ $ 0 a $.$.a 0 # $ + $ 7 k F  .9.&.p . ",
"O 1 m L ~ _ T j - @ = ; @ @ : : ; = & = @ - l T _ { 7.&.p . ",
"O 1 m L / o.X.G n x b b b h d d d b b b x n G X.X.O.7.&.p . ",
"O 1 m L R / / R W W W W W R W W W W W W W R / ! Q [ ,.%.t . ",
"O 3 V H L L L U U ' ' U ' U U ' U U U U ' U P P K ' @.] r o ",
"O 1 j V N m m m m m B m m N N n m B m N m N N N m B D C 6 o ",
"    1 3 1 1 1 1 > 1 1 1 1 1 1 1 < < < < < < < 2 1 3 4 5     ",
"    O O O o O O O O O O O O O O O O O O O O O O O O o o     "
};
