/* XPM */
static char *c0f531d8ba3445fbfbabffc27049c3bdajejRPoLA33nez3M[] = {
/* columns rows colors chars-per-pixel */
"30 30 241 2 ",
"   c None",
".  c #0A122A",
"X  c #0E122A",
"o  c #0E142B",
"O  c #0D142C",
"+  c #0F162D",
"@  c #12162D",
"#  c #12172D",
"$  c #13172D",
"%  c #15192F",
"&  c #16192F",
"*  c #1B1A2F",
"=  c #1D1A2E",
"-  c #1F1B2F",
";  c #161A30",
":  c #171A30",
">  c #171B31",
",  c #181B30",
"<  c #1B1D31",
"1  c #1C1C30",
"2  c #1C1C31",
"3  c #211E32",
"4  c #1C2038",
"5  c #1C2138",
"6  c #1F233B",
"7  c #1F233C",
"8  c #252235",
"9  c #2B2034",
"0  c #2D2536",
"q  c #2F2A3D",
"w  c #2D2B3E",
"e  c #302C3D",
"r  c #342E3C",
"t  c #3A2A39",
"y  c #3D2C3B",
"u  c #382B3C",
"i  c #412839",
"p  c #452B39",
"a  c #432D3B",
"s  c #422E3B",
"d  c #46303D",
"f  c #47303D",
"g  c #1B2341",
"h  c #232741",
"j  c #202743",
"k  c #232944",
"l  c #252A44",
"z  c #262B45",
"x  c #272B46",
"c  c #2D2C44",
"v  c #2F314A",
"b  c #373340",
"n  c #3D3645",
"m  c #303451",
"M  c #333855",
"N  c #333856",
"B  c #343956",
"V  c #353957",
"C  c #31395B",
"Z  c #323A5B",
"A  c #333A5C",
"S  c #353B5C",
"D  c #383D5D",
"F  c #393E5C",
"G  c #393E5D",
"H  c #383E5F",
"J  c #3A3F5E",
"K  c #4D2E40",
"L  c #473244",
"P  c #453C47",
"I  c #463D47",
"U  c #483D46",
"Y  c #4A3F49",
"T  c #4C3F49",
"R  c #513540",
"E  c #543441",
"W  c #5A3642",
"Q  c #403E57",
"!  c #673F48",
"~  c #713B47",
"^  c #21465C",
"/  c #3B405F",
"(  c #3D415F",
")  c #3B4060",
"_  c #3C4161",
"`  c #4D424D",
"'  c #484051",
"]  c #4A4151",
"[  c #40425F",
"{  c #42445F",
"}  c #59485D",
"|  c #694148",
" . c #76424D",
".. c #79404A",
"X. c #714B51",
"o. c #724D53",
"O. c #635155",
"+. c #625356",
"@. c #645255",
"#. c #645356",
"$. c #675456",
"%. c #6D5456",
"&. c #665558",
"*. c #685558",
"=. c #6E595A",
"-. c #735153",
";. c #705B5B",
":. c #735B5A",
">. c #725B5C",
",. c #735E5D",
"<. c #404361",
"1. c #414460",
"2. c #434460",
"3. c #464761",
"4. c #454662",
"5. c #474863",
"6. c #484861",
"7. c #484963",
"8. c #494A64",
"9. c #4A4E64",
"0. c #554D60",
"q. c #465263",
"w. c #5B5569",
"e. c #6B5666",
"r. c #645967",
"t. c #625E67",
"y. c #795760",
"u. c #705C63",
"i. c #755F64",
"p. c #7A6260",
"a. c #7C6360",
"s. c #7C6361",
"d. c #7D6461",
"f. c #75646D",
"g. c #616070",
"h. c #776874",
"j. c #87444E",
"k. c #834853",
"l. c #824A52",
"z. c #884954",
"x. c #855154",
"c. c #8C5252",
"v. c #8E5453",
"b. c #885454",
"n. c #8F5B59",
"m. c #9F5C59",
"M. c #9C5C5A",
"N. c #A75F5B",
"B. c #965660",
"V. c #85666E",
"C. c #8D6E68",
"Z. c #986567",
"A. c #9C646E",
"S. c #836F75",
"D. c #976772",
"F. c #8C757A",
"G. c #8F777B",
"H. c #917273",
"J. c #937572",
"K. c #9F7D73",
"L. c #A46062",
"P. c #A66866",
"I. c #A0666F",
"U. c #BB6F69",
"Y. c #AB7168",
"T. c #A97B6F",
"R. c #AA7E72",
"E. c #C1766B",
"W. c #C7776C",
"Q. c #C87D70",
"!. c #9D807F",
"~. c #A8847A",
"^. c #C68376",
"/. c #CD8878",
"(. c #D18071",
"). c #D38475",
"_. c #587088",
"`. c #6C6E83",
"'. c #877580",
"]. c #50899E",
"[. c #4996AA",
"{. c #8E8B97",
"}. c #A48785",
"|. c #A58785",
" X c #AA8A84",
".X c #AB8A85",
"XX c #AE8C86",
"oX c #B88286",
"OX c #B18E87",
"+X c #BB9180",
"@X c #BA9181",
"#X c #B7938A",
"$X c #83A6B7",
"%X c #BFB3BD",
"&X c #C09585",
"*X c #C1958A",
"=X c #DF9782",
"-X c #D69883",
";X c #DD9A86",
":X c #DB9D87",
">X c #C39E99",
",X c #CB9C9B",
"<X c #E19F8B",
"1X c #D5A38C",
"2X c #D5A48D",
"3X c #D4A48F",
"4X c #DDA990",
"5X c #DDAA92",
"6X c #D8A995",
"7X c #E6A38D",
"8X c #E8A189",
"9X c #E9A389",
"0X c #E8A38B",
"qX c #E3AC92",
"wX c #E3AE95",
"eX c #E0AE97",
"rX c #E5AF94",
"tX c #E5B095",
"yX c #E8B197",
"uX c #E8B297",
"iX c #ECB095",
"pX c #EFB699",
"aX c #EFB79A",
"sX c #F7B295",
"dX c #F5B497",
"fX c #F5BB9D",
"gX c #FABE9E",
"hX c #C7B0B7",
"jX c #DDC3B9",
"kX c #FDC1A0",
"lX c #FFC2A0",
"zX c #FFC3A2",
"xX c #FFC8A5",
"cX c #FFC9A5",
"vX c #FFCAA7",
"bX c #BEBAC3",
"nX c #CDBAC2",
"mX c #90C6D5",
"MX c #DFDCE3",
"NX c #D7E0E9",
"BX c #E8EBF4",
/* pixels */
"                  $ % % $ ; + ; # % # # %                   ",
"                  4 4 7 4 8 7 7 6 6 6 6 4                   ",
"                ; x B B N N N N N N N N z ;                 ",
"              4 h m / _ ) ) ) H ) ) ) / m h 4               ",
"            ; z B H / H H / H / F / H / / N k ;             ",
"            ; z H H V D / H / F / H F V D / z ;             ",
"            ; z F 1.{ ( / H H / / / ( { _ / z >             ",
"            ; k [ h.G.w.Z Z Z V Z Z w.G.h.( k >             ",
"            > g 5.XX6XG.8.4.8.8.4.8.G.6XOX6.g >             ",
"            + g 6.#XzX6XOX.X X X.XOX6XkX#X6.7 O             ",
"            w v 3.}.5XtXuXfXkXkXfXuXuXeX}.5.v q             ",
"        , &.T.f.{ } u.p.J.5XxXxX5XJ.i.i.} _ f.K.*.,         ",
"        , a.uX|.1.Q ' c ' @XvXxX*X` b ] F 1..XuXa.>         ",
"        , d.aX|.8.S.~.` n @XvXvX~.n ` ~.S.5. XgXd.*         ",
"        , =.+XH.e.*XtX#.r R.dXsXR.r @.tX*Xe.H.~.=.,         ",
"          b T o.P.7XtX#.0 n.(.(.n.0 #.tX0XP.o.` b           ",
"            o p v./.:XC.%.Y.).).Y.%.C.:X/.v.i o             ",
"            $ * r x.Q.-X4XiXdXdXiX4X-XQ.b.t * $             ",
"          U &.t.g.y.M.^.<X0X9X9X0X<X^.M.y.g.t.&.U           ",
"        , :.3XjXbXF.| k.L.U.W.W.U.L.k.| '.bXjX3X:.,         ",
"      P >.T.;X>X{.r.E ~ B.oX,X,XoXB.~ E r.{.>X;XT.:.P       ",
"    # #.3X9XE.X.w u W ..A.hXMXMXhXA...W u w X.E.9X1X#.$     ",
"    # $.dXlX<XX.= i  .j.I.nXBXBXnXI.j. .i = -.=XlXpX&.$     ",
"    # O.1XgXqXa.8 K k.z.D.%XNXNX%XD.z.k.K 8 a.qXgX3XO.$     ",
"      ` :.p.,.P , 3 L } `.$XmXmX$X`.} L 9 1 P >.p.,.Y       ",
"        , , ; ; ; - c 0._.].[.[.]._.9.w - % ; ; , ,         ",
"              . 1 f x.Z.V.q.^ ^ q.V.Z.x.R 1 .               ",
"                8 ! N.N.c.a o o y c.N.N.| 3                 ",
"                  y d d a         a d d y                   ",
"                  $ + + +         + + + +                   "
};
