/* XPM */
static char *_7a030ca3f0c446dc23376366a55bfa9CK0oZkYZkvW3vhDp[] = {
/* columns rows colors chars-per-pixel */
"30 30 47 1 ",
"  c None",
". c #5B3443",
"X c #663A45",
"o c #6B3D46",
"O c #6D4046",
"+ c #714047",
"@ c #744248",
"# c #7C454A",
"$ c #7C4B4A",
"% c #80474C",
"& c #834A4C",
"* c #894D4D",
"= c #87544B",
"- c #8C534D",
"; c #91534F",
": c #955A4F",
"> c #955550",
", c #995751",
"< c #975B50",
"1 c #9D5A52",
"2 c #A15C53",
"3 c #9C6150",
"4 c #A56353",
"5 c #AB6555",
"6 c #AE6955",
"7 c #B16C56",
"8 c #B67256",
"9 c #BA7557",
"0 c #BF7B57",
"q c #BD7758",
"w c #BE7958",
"e c #C37D59",
"r c #C38157",
"t c #C68059",
"y c #CC845A",
"u c #CF895A",
"i c #D0875B",
"p c #D58E5B",
"a c #D88F5C",
"s c #D7905B",
"d c #DC925D",
"f c #E2965E",
"g c #E5995F",
"h c #EA9D5F",
"j c #EB9E60",
"k c #EEA160",
"l c #F3A461",
/* pixels */
"  ..........................  ",
"  ===============$OX@=====$$  ",
".=esppsapppsspppu8:&3usssp93#.",
".=slgffffffffgdaiq1&6hkgfsy6@.",
".=pgteeeeeeeetq722,%6fdete8,oX",
".=sfeqwweee77q8411;%4ppq862;o.",
".=pftwww9e95588522;%:9e9622>o.",
".=pde87668e7675222;$*<57422:@X",
".=afe722279e752221>###-1122>o.",
".=afe62,27e85222,;%##o#&**1>@.",
".=afe62227952222>%@#&=*&#%>;+.",
".$ee722225521222>%@#1q94*#%%o.",
".#462>>22222221,;##-8faw1*$#XX",
".o$*%%%>2222221*##:tpiew851-o.",
".O=:::>>>>,,,,;%#;8daw9www6>oX",
".&espai5&%&&&&&o:epyewwwew6>o.",
".=slggd9-%##@o$:7saeqeqqe75>oX",
".=sgutte7:#@##-tayeeqqeq722>o.",
".=pfeqqe92*#%:9fgtqqeq97222>o.",
".=pftqq0e5>%-egkftqeqq74222>@X",
".=phpyeqq71&-ullftqeee61122>o.",
".=plhpeqq61%-ylldtqqqq72212>@.",
".=pksueeq71&-ukdpeeq9742222,oX",
".=pftqqqq5,&;ygyqqq97222222,o.",
".$0ueww951*#;phy87562222222;oX",
".#6eww851*%o-ede74222222222>o.",
".$896561*%##&<5552222222222>@X",
".$44,;>&#o#o@@#;>>>;>:,,>>>;oX",
"  $@+O@OXXXXXXXoo#o#o@oooooo  ",
"  .......X.............XXX..  "
};
