/* XPM */
static char *e2838dd3726546959b772caf787f32d7rNYrMczhEaPN0msH[] = {
/* columns rows colors chars-per-pixel */
"30 30 221 2 ",
"   c None",
".  c #01051B",
"X  c #0B0F25",
"o  c #0C1026",
"O  c #0E1228",
"+  c #0F1329",
"@  c #1B1025",
"#  c #10142A",
"$  c #12162D",
"%  c #1E172D",
"&  c #15192F",
"*  c #17192F",
"=  c #151930",
"-  c #171B31",
";  c #181C32",
":  c #181C33",
">  c #191D33",
",  c #191D34",
"<  c #1A1E34",
"1  c #1B1F35",
"2  c #1C2036",
"3  c #1E2238",
"4  c #1E2239",
"5  c #1F2339",
"6  c #202438",
"7  c #202439",
"8  c #25293F",
"9  c #272B3F",
"0  c #4F1228",
"q  c #262A41",
"w  c #272E46",
"e  c #2A2E45",
"r  c #2C3044",
"t  c #2D3148",
"y  c #2F344C",
"u  c #303347",
"i  c #30344A",
"p  c #31354D",
"a  c #32364E",
"s  c #383C4E",
"d  c #373B52",
"f  c #3A3E55",
"g  c #3A3E56",
"h  c #3B3F56",
"j  c #343958",
"k  c #423349",
"l  c #453C53",
"z  c #3E4154",
"x  c #3F4255",
"c  c #3F4355",
"v  c #3D4158",
"b  c #3F435A",
"n  c #3E4463",
"m  c #434659",
"M  c #44485F",
"N  c #474A5E",
"B  c #404561",
"V  c #474B62",
"C  c #424868",
"Z  c #484D69",
"A  c #4D5062",
"S  c #4D5163",
"D  c #4E5265",
"F  c #4D5169",
"G  c #4E536F",
"H  c #52566E",
"J  c #52566F",
"K  c #54576F",
"L  c #585B6D",
"P  c #595C6D",
"I  c #5A5C6D",
"U  c #4E5472",
"Y  c #515971",
"T  c #545870",
"R  c #555971",
"E  c #555972",
"W  c #565A72",
"Q  c #565A73",
"!  c #535B74",
"~  c #565B75",
"^  c #545C74",
"/  c #585D76",
"(  c #595D76",
")  c #565C7E",
"_  c #5D6070",
"`  c #5E6171",
"'  c #5C6078",
"]  c #5D617A",
"[  c #5C607B",
"{  c #5C627B",
"}  c #5E627B",
"|  c #5F637B",
" . c #5F637C",
".. c #616476",
"X. c #636677",
"o. c #64677B",
"O. c #63677D",
"+. c #60647E",
"@. c #656878",
"#. c #666979",
"$. c #686B7A",
"%. c #6A6D7C",
"&. c #6C6F7F",
"*. c #8B3E53",
"=. c #8A485C",
"-. c #C06C7F",
";. c #676C89",
":. c #6F7181",
">. c #707384",
",. c #707389",
"<. c #697096",
"1. c #6E759B",
"2. c #6E749D",
"3. c #747892",
"4. c #797D97",
"5. c #777DA3",
"6. c #7F84A5",
"7. c #7E85A9",
"8. c #858794",
"9. c #858795",
"0. c #81859F",
"q. c #89859C",
"w. c #888A9A",
"e. c #8B8D9C",
"r. c #878AA1",
"t. c #8B8BA3",
"y. c #8388A8",
"u. c #8489AA",
"i. c #878CAC",
"p. c #8A8EA8",
"a. c #898EAD",
"s. c #888EAF",
"d. c #8A8FAE",
"f. c #8E92AA",
"g. c #9396A6",
"h. c #9195AF",
"j. c #969AAF",
"k. c #9A9CA8",
"l. c #8A8FB1",
"z. c #8B90B3",
"x. c #8F94B3",
"c. c #9296B0",
"v. c #9397B0",
"b. c #9296B1",
"n. c #9196B7",
"m. c #9298B2",
"M. c #959AB0",
"N. c #9498B2",
"B. c #969AB5",
"V. c #9D98B3",
"C. c #9398B9",
"Z. c #999DBA",
"A. c #BA9FAE",
"S. c #9DA0B0",
"D. c #9CA0B9",
"F. c #9FA3BA",
"G. c #A1A7B6",
"H. c #A0A3BD",
"J. c #A2A5BD",
"K. c #A3A7BE",
"L. c #ACAFBF",
"P. c #BFADBC",
"I. c #C5A8B8",
"U. c #A7ABC2",
"Y. c #A7ABC5",
"T. c #A8ACC5",
"R. c #ACB0CA",
"E. c #B4B6C4",
"W. c #B3B8C6",
"Q. c #BABBC6",
"!. c #BABCC7",
"~. c #BBBCC7",
"^. c #BBBDC7",
"/. c #B3B7CD",
"(. c #B2B6CE",
"). c #BCBDC8",
"_. c #BCBEC8",
"`. c #BDBEC8",
"'. c #B8BBCF",
"]. c #BABDD2",
"[. c #B9BCD4",
"{. c #CCB4C3",
"}. c #BEC0CF",
"|. c #BDC0D1",
" X c #C1C3D0",
".X c #C1C3D3",
"XX c #C0C3D6",
"oX c #C2C4D5",
"OX c #C4C6D6",
"+X c #C5C7D6",
"@X c #C5C7D7",
"#X c #C6C8D2",
"$X c #C6C8D7",
"%X c #C5C7D9",
"&X c #C4CAD9",
"*X c #C7CADB",
"=X c #C8CADB",
"-X c #C8CBDB",
";X c #CDCED8",
":X c #CACCDC",
">X c #D0D1DA",
",X c #D1D2DB",
"<X c #D1D2E0",
"1X c #D0D2E1",
"2X c #D3D8E4",
"3X c #D8DAE4",
"4X c #D9DBE5",
"5X c #DADBE5",
"6X c #DBDCE5",
"7X c #DADCE6",
"8X c #DCDDE6",
"9X c #DBDCE8",
"0X c #DFE0E8",
"qX c #E0E1E8",
"wX c #E0E1E9",
"eX c #E1E2E9",
"rX c #E2E3EA",
"tX c #E6E7EE",
"yX c #E6E7EF",
"uX c #E7E8EF",
"iX c #EAECF7",
/* pixels */
"                  # # + + + + + + + + + +                   ",
"                  a m N A A A A D A N x a                   ",
"                3 ( f.T._._._._._._.L.f./ 3                 ",
"              a F r.|.9XtXuXtXtXyXtX9XoXr.F a               ",
"            < J N.|.3XwXwXwXwXwXwXwX0X3X|.N.J <             ",
"            < ( T.<XrXwX0X0X0X0X0X0XrXrX<XT.( <             ",
"            < Q H.*X8XwX0X0X0X0X0X0XqX8X*XH.Q >             ",
"            > Z u.R.-X5XwXwX0X0XwXwX5X-XR.u.Z >             ",
"            > n 1.s.J.+X8X0X0X0X9X9X$XJ.s.1.n >             ",
"            < G 6.;.] j.-X7XrXwX7X:Xj.] ;.y.G >             ",
"            > ] c.J 9 +.G.$X7X5X$XG.+.9 J c.] >             ",
"            > +.N.J - w ^ N.].].N.Y e > J h.+.>             ",
"            < ] c.Q & @ k q.(.(.q.k @ * Q N.] >             ",
"            <  .B.Y % 0 *.A.2X2XA.=.0 @ Y B.+.>             ",
"            > Q 4.! l =.-.I.*X&XI.-.=.l Y 4.Q >             ",
"              e g ] t.P.{.V.7.7.Z.{.I.t.] g e               ",
"              . > >.].W.G.c.z.l.N.F.W.'.>.2 .               ",
"            $ X 6 w. X:.D S.<X<XS.S >. Xw.7 o $             ",
"          x I ` @.8.8.s 7 %.k.k.%.3 s 8.8.@._ I m           ",
"        < @.!.>XQ.>.e > < q u u 9 2 ; r :.!.>X!.@.<         ",
"      m @.g..XE.e.Q j n J X.$.$...K B j Q e.W..Xg.o.m       ",
"    $ I !.:XU.O.r C <.i.K.}.;X;X`.J.i.<.C r +.U.:X_.L #     ",
"    $ I >XiXoXo.3 U C.[.%X/.Y.Y.(.*X].C.U 3 @.oXiX>X` $     ",
"    $ L _.8X#X&.9 ( Z.%XoXb.2.2.x.%X-XZ.^ 9 &.#X7X!.L $     ",
"      m X.&.@.z < i Q r.Z.n.l.z.C.Z.0.Q i 2 x @.%.X.m       ",
"        - - > & - < y ) 5.s.c.c.i.5.) y < - - - > -         ",
"              o 2 V 3.i.u.] M M ( y.s.3.V < o               ",
"                3 ( p.c.4.g o + h 4.h.p.] 3                 ",
"                  d b b v         h m b d                   ",
"                  # # # #         $ # # #                   "
};
