/* XPM */
static char *_640978792623[] = {
/* columns rows colors chars-per-pixel */
"25 25 152 2 ",
"   c #000022",
".  c #050922",
"X  c #070E2B",
"o  c #080D2A",
"O  c #090F2B",
"+  c #090F2C",
"@  c #0E1229",
"#  c #0C112B",
"$  c #0D112B",
"%  c #0D122B",
"&  c #0F132A",
"*  c #0D122C",
"=  c #0C122D",
"-  c #0D132D",
";  c #0C142D",
":  c #0F142C",
">  c #0F172D",
",  c #0F142E",
"<  c #10152D",
"1  c #11152D",
"2  c #13172D",
"3  c #10152E",
"4  c #11162F",
"5  c #12172E",
"6  c #13172E",
"7  c #18162F",
"8  c #14182E",
"9  c #15192E",
"0  c #161A2E",
"q  c #161A2F",
"w  c #1A1C2E",
"e  c #1B1D2E",
"r  c #1D1E2F",
"t  c #1E1F2F",
"y  c #1B1B30",
"u  c #191D30",
"i  c #1C1F31",
"p  c #2C112F",
"a  c #221A30",
"s  c #1F202F",
"d  c #1F212F",
"f  c #1E2232",
"g  c #222330",
"h  c #262232",
"j  c #242634",
"k  c #252734",
"l  c #282333",
"z  c #282730",
"x  c #292434",
"c  c #252834",
"v  c #2B2830",
"b  c #2F2B30",
"n  c #2F2C31",
"m  c #282934",
"M  c #292A34",
"N  c #282A35",
"B  c #292B36",
"V  c #292C36",
"C  c #2A2C36",
"Z  c #2F2E34",
"A  c #2E2F37",
"S  c #202539",
"D  c #302C30",
"F  c #332E31",
"G  c #2F3138",
"H  c #303036",
"J  c #383231",
"K  c #303138",
"L  c #303238",
"P  c #313238",
"I  c #313239",
"U  c #32353F",
"Y  c #441934",
"T  c #451934",
"R  c #461934",
"E  c #571E37",
"W  c #70223B",
"Q  c #7B233C",
"!  c #353948",
"~  c #4C4D43",
"^  c #514F44",
"/  c #4F5044",
"(  c #565446",
")  c #5A5848",
"_  c #444A59",
"`  c #6A674D",
"'  c #6C684E",
"]  c #555B66",
"[  c #81283E",
"{  c #84293F",
"}  c #917139",
"|  c #A37E3A",
" . c #A67F39",
".. c #A57F3A",
"X. c #A62E44",
"o. c #AA2F45",
"O. c #B63046",
"+. c #BB3147",
"@. c #807B56",
"#. c #837D56",
"$. c #847E57",
"%. c #857F57",
"&. c #A6803B",
"*. c #A7843E",
"=. c #AB843B",
"-. c #BB8E3B",
";. c #BC8F3C",
":. c #BC903C",
">. c #C2943D",
",. c #888157",
"<. c #8F885A",
"1. c #B28E43",
"2. c #B89142",
"3. c #BD9441",
"4. c #AA9B59",
"5. c #BEA052",
"6. c #BDA355",
"7. c #B5A15A",
"8. c #BFAA5E",
"9. c #A29961",
"0. c #A79E62",
"q. c #ABA365",
"w. c #ACA666",
"e. c #ACA767",
"r. c #B4A968",
"t. c #B6AB69",
"y. c #B8AE6B",
"u. c #BDB26B",
"i. c #D4B65D",
"p. c #C4AF60",
"a. c #C2B66C",
"s. c #C2B66D",
"d. c #C3B86D",
"f. c #C3B86F",
"g. c #C6BA6F",
"h. c #C7BB6F",
"j. c #C8BC6F",
"k. c #C9BD6F",
"l. c #C8BC70",
"z. c #C8BD70",
"x. c #CCBF71",
"c. c #DFD278",
"v. c #E0D278",
"b. c #E2D378",
"n. c #F0E17E",
"m. c #F3E37F",
"M. c #A0A599",
"N. c #D4CF92",
"B. c #ECD580",
"V. c #FCEB81",
"C. c #C1C8B7",
"Z. c None",
/* pixels */
"Z.Z.Z.Z.Z.Z.Z.Z.Z.Z.Z.Z.Z.Z.Z.Z.Z.Z.Z.Z.Z.Z.Z.Z.Z.",
"Z.Z.Z.Z.Z.Z.Z.Z.Z.Z.Z.Z.Z.Z.Z.Z.Z.Z.Z.Z.Z.Z.Z.Z.Z.",
"Z.Z.Z.K k 9 Z.Z.Z.Z.Z.Z.Z.Z.Z.Z.Z.Z.Z.9 c K Z.Z.Z.",
"Z.Z.G 9.%.i < 8 9 & & < 9 2 @ < 9 6 > f %.9.G Z.Z.",
"Z.Z.K c.q.8 o O , _ ] g & S ] _ < & X y q.c.K Z.Z.",
"Z.Z.G k.r.C f r x M.C.! . ! C.M.m a f C r.l.K Z.Z.",
"Z.Z.K k.m.u.y.7.1.B.N.!   I N.b.1.7.y.u.n.g.K Z.Z.",
"Z.Z.N <.d.s.d.p.2.6.0.` ( ` 0.p.1.p.d.s.s.<.N Z.Z.",
"Z.Z.q k C N C N m g ^ k.n.l.^ g z N N N C k u Z.Z.",
"Z.Z.< + + * * * * O k ' #.' k O * * * * + + < Z.Z.",
"Z.Z.w J F 9 6 6 9 6 < < < < < 9 8 8 8 9 F J w Z.Z.",
"Z.Z.z  .} r < 8 6 9 9 9 8 < 9 9 8 8 < r }  .z Z.Z.",
"Z.Z.D >.=.d > 9 9 6 9 6 8 8 8 8 6 9 > r =.>.D Z.Z.",
"Z.Z.D :.&.a > < 6 9 6 9 8 8 8 8 9 6 > i *.:.b Z.Z.",
"Z.Z.D ;. .i > 9 9 6 9 6 6 9 8 8 6 6 < r  .-.b Z.Z.",
"Z.Z.b ;. .i = > > > > > > > > < > 6 * i  .-.b Z.Z.",
"Z.Z.n 3.*.f 7 a a a a a a a a a a a 7 g *.3.b Z.Z.",
"Z.Z.H p.4.h E { { Q { Q { { { Q { { E h 4.p.H Z.Z.",
"Z.Z.K l.e.z Q +.O.O.O.O.O.O.O.O.O.+.Q z e.l.K Z.Z.",
"Z.Z.K l.w.l W o.X.X.X.X.X.X.X.X.X.o.W k w.l.K Z.Z.",
"Z.Z.K g.q.y p R Y Y Y Y Y Y Y Y Y Y p w q.l.G Z.Z.",
"Z.Z.K g.l.) ~ ^ / / ( ~ ~ ( ~ ^ ^ ^ ~ ) l.g.K Z.Z.",
"Z.Z.G s.V.v.c.v.v.v.v.v.c.v.v.v.v.v.c.b.V.p.K Z.Z.",
"Z.Z.F 5.i.,.@.#.#.#.#.#.#.#.#.%.#.#.@.%.i.p.C Z.Z.",
"Z.Z.n :...y * < < < < < < 8 < < < < * r  .-.b Z.Z."
};
