/* XPM */
static char *_640783134295[] = {
/* columns rows colors chars-per-pixel */
"16 16 8 1 ",
"  c #302C2E",
". c #5E3643",
"X c #7A444A",
"o c #BF7958",
"O c #EEA160",
"+ c #F4CCA1",
"@ c #DFF6F5",
"# c None",
/* pixels */
"#              #",
" O+++++++++++++ ",
" oOOOOOOOOOOOO+ ",
" oOO        OO+ ",
" oO ..X@@X.. O+ ",
" oO .X@OO@X. O+ ",
" oO X@@OO@@X O+ ",
" oO @OO++OO@ O+ ",
" oO @OO++OO@ O+ ",
" oO X@@OO@@X O+ ",
" oO .X@OO@X. O+ ",
" oO ..X@@X.. O+ ",
" oOO        OO+ ",
" oOOOOOOOOOOOO+ ",
" oooooooooooooO ",
"#              #"
};
