/* XPM */
static char *_640978800666[] = {
/* columns rows colors chars-per-pixel */
"25 25 93 2 ",
"   c #2E2A2D",
".  c #2E2B2D",
"X  c #2E2B2E",
"o  c #372F30",
"O  c #3C3232",
"+  c #3D3232",
"@  c #3F3535",
"#  c #492F3B",
"$  c #502D36",
"%  c #4A303B",
"&  c #433D3C",
"*  c #533A3B",
"=  c #45403E",
"-  c #59423A",
";  c #674D3B",
":  c #613543",
">  c #663944",
",  c #6D4C40",
"<  c #6E4D40",
"1  c #6E4E40",
"2  c #67594E",
"3  c #745241",
"4  c #725440",
"5  c #694F55",
"6  c #7B4B52",
"7  c #805C42",
"8  c #856348",
"9  c #876F5B",
"0  c #A26E45",
"q  c #A36F46",
"w  c #A47148",
"e  c #A57249",
"r  c #A4724A",
"t  c #A6744B",
"y  c #A7754C",
"u  c #A6754D",
"i  c #A8774D",
"p  c #BC7757",
"a  c #815961",
"s  c #867261",
"d  c #877463",
"f  c #877564",
"g  c #C17B58",
"h  c #C37D58",
"j  c #C37D59",
"k  c #BF8351",
"l  c #C18654",
"z  c #D0885D",
"x  c #D7935A",
"c  c #DE925E",
"v  c #EF964E",
"b  c #E4975D",
"n  c #E5985F",
"m  c #E6995F",
"M  c #E89A5F",
"N  c #EE9F5E",
"B  c #F2A05C",
"V  c #F3A35F",
"C  c #E59E64",
"Z  c #E99B60",
"A  c #EFA260",
"S  c #EEA565",
"D  c #ECA56D",
"F  c #F5A662",
"G  c #F0A667",
"H  c #EDAC72",
"J  c #F2AD70",
"K  c #F3AE72",
"L  c #EDB37D",
"P  c #F4B073",
"I  c #F6B073",
"U  c #F7B173",
"Y  c #AB908F",
"T  c #96A1A5",
"R  c #B0A7AC",
"E  c #EAB380",
"W  c #F7B980",
"Q  c #F1BC8A",
"!  c #EFC79D",
"~  c #F2C293",
"^  c #F1C598",
"/  c #F1C69A",
"(  c #F4C79A",
")  c #F4C99C",
"_  c #F5D3AB",
"`  c #E5D7BF",
"'  c #A5BCC0",
"]  c #DDD4C4",
"[  c #DDDCCF",
"{  c #EEEBD6",
"}  c #E5EBDD",
"|  c #D1E5EA",
" . c None",
/* pixels */
" . .. . . . . . . .             . . . . . .    . .",
" .; 8 9 d d d d d d d d d d d d d d d d d d d 2  .",
". 7 C Q / / / / ^ ^ ^ ^ ^ ^ ^ ^ ^ ^ ^ ^ ^ ) ) d   ",
". 3 z D P K K I I I I U U U U U U U P P J L ) f   ",
". , p n V N k r w w w w 0 w e e e e k V B J ^ d   ",
". < g Z V x 4 o + O & = & & O # # o ; x N K ^ d   ",
". < j Z k 4 * % % $ 5 T ' T 5 $ % # * ; l K ^ d   ",
"X < j Z u o % : > a Y ] { [ Y 6 > > % o e U ^ d   ",
". < j Z i O % > 6 R [ L S E [ R 6 5 # O e U ^ d   ",
". < j M i O $ a R | } H v H } | R 6 $ O t U ^ d   ",
". < h M u & 5 Y [ } ` L G L ` } [ Y 5 @ e U / d   ",
"X < h M q & T ] L H L ~ ) ~ L H E ] T & 0 U ^ d   ",
"X < j Z e = ' { S v S ) _ ) S v S { ' = q U ^ d   ",
"X < j Z e & T ] L H L ~ ) ~ L H E [ T = q K ^ d   ",
"X < j Z u @ 5 Y [ } ` L S L ` } [ Y 5 # e U ^ d   ",
"X < j Z i O $ a R | } H v H } | R 6 $ + y U ^ d   ",
"X < j Z i O # > 6 R [ E S E [ R 6 > % + t U ^ f   ",
"X < j Z u o # : > a Y ] { ] Y a > : % # w U ^ f . ",
"X < j n l 4 * # # $ 5 T ' T 5 $ # # * ; k U ^ f . ",
"X < j Z F x 4 o O O @ & = & & o + o ; c B J ^ f . ",
"  , g Z F A l u i i u e e e u i t t l N V J ^ f . ",
"o , j c b b Z Z Z Z Z Z Z Z Z Z Z Z Z Z b D ~ 9 . ",
"  , g j j j g j j j j j j j j j j j j j l b C 8 X ",
" .- < < ; < < < < < < < < < < < < < < < 3 ; ; ;  .",
" . .. X X X X X X X X X X X X X o       X X X  . ."
};
