/* XPM */
static char *_641221550353[] = {
/* columns rows colors chars-per-pixel */
"25 25 140 2 ",
"   c #0C122A",
".  c #0D132B",
"X  c #0D142C",
"o  c #10142B",
"O  c #10162C",
"+  c #12172D",
"@  c #16162C",
"#  c #1B172C",
"$  c #12182F",
"%  c #14182D",
"&  c #1E1B2F",
"*  c #171B31",
"=  c #1A1B31",
"-  c #1C1C31",
";  c #1D1C31",
":  c #1A1F36",
">  c #1D1F34",
",  c #271A2D",
"<  c #201C30",
"1  c #211E32",
"2  c #241E30",
"3  c #10243B",
"4  c #222235",
"5  c #242135",
"6  c #2E2B3B",
"7  c #352434",
"8  c #3A2837",
"9  c #302C3C",
"0  c #312D3C",
"q  c #3A2A3A",
"w  c #3E2C3B",
"e  c #3D2E3D",
"r  c #442D3B",
"t  c #4A303D",
"y  c #4E313E",
"u  c #59353F",
"i  c #222640",
"p  c #242842",
"a  c #252943",
"s  c #282C47",
"d  c #232C4A",
"f  c #2B304D",
"g  c #2D324D",
"h  c #2E324E",
"j  c #2F334F",
"k  c #313345",
"l  c #34324A",
"z  c #343856",
"x  c #373B5A",
"c  c #333B5C",
"v  c #343B5C",
"b  c #333D5E",
"n  c #333D5F",
"m  c #373D5D",
"M  c #363E5E",
"N  c #393E5D",
"B  c #393F5E",
"V  c #3A3F5E",
"C  c #3A3F5F",
"Z  c #4C3640",
"A  c #463C46",
"S  c #513542",
"D  c #533743",
"F  c #573843",
"G  c #613845",
"H  c #613947",
"J  c #603D45",
"K  c #653D45",
"L  c #683A45",
"P  c #6D3C47",
"I  c #613F4B",
"U  c #703E49",
"Y  c #3B405F",
"T  c #3C405E",
"R  c #3D405E",
"E  c #3B4060",
"W  c #3C4161",
"Q  c #3A5568",
"!  c #52464D",
"~  c #5E414D",
"^  c #4A445F",
"/  c #4A455F",
"(  c #4C455F",
")  c #4E4A5B",
"_  c #5A4B50",
"`  c #5B4B50",
"'  c #5F4E53",
"]  c #56485E",
"[  c #67424B",
"{  c #74464A",
"}  c #7B424C",
"|  c #645356",
" . c #6C5859",
".. c #6E5859",
"X. c #6E5959",
"o. c #745B5A",
"O. c #5D5565",
"+. c #6B4F60",
"@. c #5D6E7B",
"#. c #746060",
"$. c #7E666D",
"%. c #6D6B76",
"&. c #756773",
"*. c #894E4E",
"=. c #814C57",
"-. c #8C515B",
";. c #8F585C",
":. c #915757",
">. c #9A5958",
",. c #995D5E",
"<. c #8E5B61",
"1. c #8F6162",
"2. c #886065",
"3. c #866A66",
"4. c #93756E",
"5. c #97776E",
"6. c #816E77",
"7. c #827078",
"8. c #AB6563",
"9. c #B56E68",
"0. c #C98274",
"q. c #CB8374",
"w. c #C98F7D",
"e. c #3B8095",
"r. c #458599",
"t. c #528092",
"y. c #668898",
"u. c #6D8A9A",
"i. c #6496A5",
"p. c #BC9180",
"a. c #A69FAA",
"s. c #CA9C87",
"d. c #E2AA91",
"f. c #E7B098",
"g. c #E8B298",
"h. c #EDB69A",
"j. c #FFBC9C",
"k. c #FFC2A1",
"l. c #DECAC6",
"z. c None",
/* pixels */
"z.z.z.z.z.z.z.z.% % % % % % % % # z.z.z.z.z.z.z.z.",
"z.z.z.z.z.z.z.: p a p p p p a p a 3 z.z.z.z.z.z.z.",
"z.z.z.z.z.z.= i x C C C C C Y Y x 4 * z.z.z.z.z.z.",
"z.z.z.z.z.* s z C Y C Y C Y Y T Y z s * z.z.z.z.z.",
"z.z.z.z.z.* g W Y N Y N C N Y N Y Y g * z.z.z.z.z.",
"z.z.z.z.z.* g Y N Y N Y N Y N Y M Y g * z.z.z.z.z.",
"z.z.z.z.z.* g Y Y N Y N Y N Y N Y Y f * z.z.z.z.z.",
"z.z.z.z.z.$ f E N Y N Y N Y N Y Y Y f * z.z.z.z.z.",
"z.z.z.z.z.3 g T Y N Y N Y N Y N C T g 3 z.z.z.z.z.",
"z.z.z.z.[ 4.O.M N Y N Y N Y N Y N m O.4.[ z.z.z.z.",
"z.z.z.. o.h.6.c Y N Y N Y N Y N C c 6.h.o.  z.z.z.",
"z.z.z.  X.g.6.M N Y N Y N Y N Y C m 6.f.X.X z.z.z.",
"z.z.z.z.! 3.2.+.Y b M Y Y Y m b T +.2.3.! z.z.z.z.",
"z.z.z.z.z.> { ;.] / / T N T / / ] ;.{ > z.z.z.z.z.",
"z.z.z.z.z.X , F ,.8.<./ n / ;.8.,.F 2 o z.z.z.z.z.",
"z.z.z.z.A #.%.&.:.*.[ l d l [ *.:.&.%.#.A z.z.z.z.",
"z.z.z.4 o.f.l.a.~ 7 1 = = > 1 7 ~ a.l.f.o.4 z.z.z.",
"z.z.6 5.w.q.$.) D G G r 8 r G G D ) $.0.w.5.6 z.z.",
"z.z.0 s.j.q.Z # y U } P L P } U y # t q.j.s.0 z.z.",
"z.z.6 p.k.d._ > t D I =.-.=.I D t & _ d.k.p.0 z.z.",
"z.z.z.'  .| 0 @ 5 Q t.y.u.y.t.Q 5 @ 0 |  .' z.z.z.",
"z.z.z.      X , e @.i.r.e.r.i.@.e ; + X     z.z.z.",
"z.z.z.z.z.z.X e >.9.1.k 3 k 1.9.>.w X z.z.z.z.z.z.",
"z.z.z.z.z.z.z.q J K u , z., u K J q z.z.z.z.z.z.z.",
"z.z.z.z.z.z.z.z.$ + + z.z.z.+ + + z.z.z.z.z.z.z.z."
};
