/* XPM */
static char *_640978775688[] = {
/* columns rows colors chars-per-pixel */
"25 25 177 2 ",
"   c #0C122A",
".  c #0D132B",
"X  c #0D142C",
"o  c #10142B",
"O  c #10162D",
"+  c #12172D",
"@  c #12182F",
"#  c #14182D",
"$  c #171B31",
"%  c #1D1A30",
"&  c #1D1C30",
"*  c #1F1D30",
"=  c #1A1F36",
"-  c #1D1F34",
";  c #211A2E",
":  c #271B2D",
">  c #231D30",
",  c #10243B",
"<  c #222235",
"1  c #2E2136",
"2  c #2E2B3B",
"3  c #332A39",
"4  c #302C3C",
"5  c #302D3C",
"6  c #3A2A3A",
"7  c #3E2C3B",
"8  c #3B293C",
"9  c #3B2C3C",
"0  c #222640",
"q  c #242842",
"w  c #252943",
"e  c #282C47",
"r  c #252C4A",
"t  c #292F4C",
"y  c #302E45",
"u  c #2C314D",
"i  c #2E324E",
"p  c #303244",
"a  c #343856",
"s  c #31395B",
"d  c #373B5A",
"f  c #333A5C",
"g  c #333B5C",
"h  c #363C5D",
"j  c #3B3E5A",
"k  c #383D5D",
"l  c #393E5D",
"z  c #3A3F5E",
"x  c #3A3F5F",
"c  c #4B3540",
"v  c #443B47",
"b  c #463C46",
"n  c #503542",
"m  c #593740",
"M  c #523E47",
"N  c #623945",
"B  c #603D45",
"V  c #653E46",
"C  c #703B47",
"Z  c #743F4A",
"A  c #3B405F",
"S  c #3B4060",
"D  c #3F4361",
"F  c #52464D",
"G  c #594A4F",
"H  c #4C495A",
"J  c #514553",
"K  c #504657",
"L  c #5B4B50",
"P  c #5F4E53",
"I  c #52455B",
"U  c #634046",
"Y  c #61434E",
"T  c #6F4248",
"R  c #7B4450",
"E  c #645356",
"W  c #665357",
"Q  c #6C5859",
"!  c #6E5859",
"~  c #6E5959",
"^  c #745B5A",
"/  c #705D5C",
"(  c #404360",
")  c #464762",
"_  c #4A4860",
"`  c #5A5162",
"'  c #5B5465",
"]  c #645B6D",
"[  c #685D6D",
"{  c #746060",
"}  c #756167",
"|  c #7E666D",
" . c #6D6B76",
".. c #716371",
"X. c #716471",
"o. c #736571",
"O. c #736572",
"+. c #746572",
"@. c #7A6A75",
"#. c #7B6B75",
"$. c #80424C",
"%. c #8A4853",
"&. c #8D5557",
"*. c #8E5B5D",
"=. c #9A5957",
"-. c #9E595E",
";. c #815C62",
":. c #836864",
">. c #866A66",
",. c #81686A",
"<. c #9D636D",
"1. c #93756E",
"2. c #97776E",
"3. c #816F78",
"4. c #9C6D77",
"5. c #B46964",
"6. c #B16C65",
"7. c #BB726D",
"8. c #BB796F",
"9. c #A36D77",
"0. c #AD7C78",
"q. c #BC7F72",
"w. c #C0776C",
"e. c #C37B6F",
"r. c #D17C6F",
"t. c #C57A71",
"y. c #A48179",
"u. c #C98274",
"i. c #CB8374",
"p. c #C98F7D",
"a. c #397F94",
"s. c #437B90",
"d. c #607084",
"f. c #6A7489",
"g. c #AE8C86",
"h. c #BC9180",
"j. c #BA948A",
"k. c #A49EA9",
"l. c #CA9C87",
"z. c #CA9D8B",
"x. c #D19481",
"c. c #DD9A87",
"v. c #E69E85",
"b. c #E49D86",
"n. c #EA9C85",
"m. c #D6A48C",
"M. c #DCA990",
"N. c #DFAC93",
"B. c #E2AA91",
"V. c #E9AA90",
"C. c #ECAE93",
"Z. c #E7B098",
"A. c #E8B298",
"S. c #E8B299",
"D. c #E8B399",
"F. c #EDB69A",
"G. c #ECB69B",
"H. c #EEB79B",
"J. c #F4B195",
"K. c #F3B99B",
"L. c #F2BA9D",
"P. c #F4BB9D",
"I. c #F5BB9D",
"U. c #FFBC9C",
"Y. c #CAACB1",
"T. c #FFC2A1",
"R. c #FFCCA7",
"E. c #FFCEA9",
"W. c #81B1C2",
"Q. c #89C6D5",
"!. c #D9C4C7",
"~. c #DECAC6",
"^. c #CDC8D1",
"/. c #D8CFD7",
"(. c #DEE7F0",
"). c #E9F0F8",
"_. c None",
/* pixels */
"_._._._._._._._.# # @ # # # # # # _._._._._._._._.",
"_._._._._._._.= w w 0 e w w w w 0 = _._._._._._._.",
"_._._._._._.$ 0 d l l l l l l l d 0 $ _._._._._._.",
"_._._._._.$ e a l A D l A S l D l d e $ _._._._._.",
"_._._._._.$ u D h h l A l A l l h S i $ _._._._._.",
"_._._._._.$ u D ) D A l A l l ( ) ( u $ _._._._._.",
"_._._._._.$ t ] g.O.s d f f f ..g.] t $ _._._._._.",
"_._._._._.@ r @.L.j.o.O.O.O.O.j.P.#.r # _._._._._.",
"_._._._._.- t O.Z.P.D.F.H.F.D.P.Z.O.u , _._._._._.",
"_._._._.L 1.' H } ,.y.P.R.K.y.,.} _ ' 1.P _._._._.",
"_._._.  ~ G.3.j K e J B.E.B.J e J j 3.F.!   _._._.",
"_._._.  ~ S.@.[ z.W b M.E.M.b W z.[ #.A.!   _._._.",
"_._._._.F >.;.0.I.^ 7 y.n.y.7 ^ I.0.;.>.F _._._._.",
"_._._._._.& T e.V.>.m 6.r.6.M >.V.e.T & _._._._._.",
"_._._._._.. > U w.p.m.C.J.C.m.p.e.B ; O _._._._._.",
"_._._._.F {  .+.&.8.c.b.b.b.b.e.&.O. .{ b _._._._.",
"_._._.< ^ Z.~.k.Y Z -.7.t.7.-.Z Y k.~.S.^ < _._._.",
"_._.2 2.p.u.| H n C <.Y.!.Y.<.C n H | u.p.2.2 _._.",
"_._.4 z.U.u.c ; N $.9./.)./.9.$.N ; c i.U.l.4 _._.",
"_._.4 h.T.B.G 1 R %.4.^.(.^.4.%.R 1 G B.T.h.4 _._.",
"_._._.P ~ E 4 % 8 I f.W.Q.W.f.I 8 & 2 W ~ P _._._.",
"_._._.      O * 9 ` d.s.a.s.d.` 7 & @       _._._.",
"_._._._._._.X 7 =.5.*.p , p *.5.=.7 X _._._._._._.",
"_._._._._._._.6 B V m : _.: m V m 6 _._._._._._._.",
"_._._._._._._._.@ O @ _._._.O # $ _._._._._._._._."
};
