/* XPM */
static char *_9cf5ae2ed654b41c92632610865b8c6KuLWHsEfLGi8yYbx[] = {
/* columns rows colors chars-per-pixel */
"25 25 166 2 ",
"   c None",
".  c #080C22",
"X  c #0B0F25",
"o  c #1C0D23",
"O  c #0D1128",
"+  c #0E1228",
"@  c #0F132A",
"#  c #11152B",
"$  c #12162C",
"%  c #1B1F36",
"&  c #1C2037",
"*  c #1D2137",
"=  c #1E2238",
"-  c #1F2339",
";  c #202439",
":  c #20243A",
">  c #22253A",
",  c #23273D",
"<  c #25263C",
"1  c #5A192F",
"2  c #2A2E43",
"3  c #2B2E43",
"4  c #2C2F43",
"5  c #282F47",
"6  c #2A2E46",
"7  c #2C2F44",
"8  c #292D49",
"9  c #2C3044",
"0  c #2D3145",
"q  c #30344A",
"w  c #30344B",
"e  c #34384F",
"r  c #333850",
"t  c #353951",
"y  c #363A52",
"u  c #373B52",
"i  c #3A3E50",
"p  c #4D3950",
"a  c #3E4154",
"s  c #3E4259",
"d  c #41455B",
"f  c #43475F",
"g  c #4B4F62",
"h  c #494D65",
"j  c #4E5163",
"k  c #4C5068",
"l  c #4D5168",
"z  c #4E5269",
"x  c #4F536B",
"c  c #555869",
"v  c #5A5C6D",
"b  c #4C5275",
"n  c #555971",
"m  c #5A5F71",
"M  c #585C74",
"N  c #545A7B",
"B  c #555B7B",
"V  c #5A5F78",
"C  c #5D5F78",
"Z  c #5D617A",
"A  c #606374",
"S  c #626679",
"D  c #656878",
"F  c #67697A",
"G  c #6C6E7E",
"H  c #A65064",
"J  c #5D6283",
"K  c #616980",
"L  c #686C84",
"P  c #636888",
"I  c #6D7080",
"U  c #6E7080",
"Y  c #6E7180",
"T  c #6D718C",
"R  c #767886",
"E  c #74778A",
"W  c #797C8A",
"Q  c #6C739C",
"!  c #727691",
"~  c #737791",
"^  c #757994",
"/  c #767A94",
"(  c #777B95",
")  c #787C95",
"_  c #7A7F99",
"`  c #7B7F9A",
"'  c #767CA3",
"]  c #797EA2",
"[  c #797FA2",
"{  c #797FA4",
"}  c #A27A8C",
"|  c #7B819B",
" . c #7D819A",
".. c #7E839C",
"X. c #7E829E",
"o. c #808393",
"O. c #848794",
"+. c #858795",
"@. c #80839C",
"#. c #82869C",
"$. c #8186A1",
"%. c #8589A3",
"&. c #8187AA",
"*. c #858AAB",
"=. c #8E92AD",
"-. c #9294A0",
";. c #9799A6",
":. c #8F94B6",
">. c #9095B6",
",. c #9499B7",
"<. c #989BB1",
"1. c #9E9DB4",
"2. c #9EA0AD",
"3. c #9EA1B9",
"4. c #9FA3BB",
"5. c #9EA2BE",
"6. c #A5A7B3",
"7. c #A7A8B3",
"8. c #A9A3BA",
"9. c #B1B3BE",
"0. c #CA95A6",
"q. c #9EA7C1",
"w. c #ABAEC1",
"e. c #A9ADC2",
"r. c #A9ADC9",
"t. c #AFB2C1",
"y. c #AFB2C7",
"u. c #B3B5C4",
"i. c #B3B6C6",
"p. c #B0B3C8",
"a. c #B3B6CC",
"s. c #B5B8CF",
"d. c #B7BAD0",
"f. c #B9BED5",
"g. c #CDBECB",
"h. c #BDC0D3",
"j. c #BEC1D4",
"k. c #BFC2D6",
"l. c #BFC2D7",
"z. c #C1C3D0",
"x. c #C0C2D1",
"c. c #C5C7D1",
"v. c #C2C4D5",
"b. c #C4C6D7",
"n. c #CBCDD7",
"m. c #C2C4D8",
"M. c #CBCDDB",
"N. c #CBCDDC",
"B. c #D5D6DF",
"V. c #D1D3E3",
"C. c #D4D5E2",
"Z. c #D5D7E3",
"A. c #D6D7E2",
"S. c #DCDDE5",
"D. c #DDDEE6",
"F. c #DEDFE7",
"G. c #DEDFE8",
"H. c #DEDFE9",
"J. c #DFE0E8",
"K. c #DAE3ED",
"L. c #E0E1E9",
"P. c #E1E2E9",
"I. c #E1E2EA",
"U. c #E2E3EA",
"Y. c #E2E3EB",
"T. c #E5E6F2",
/* pixels */
"                $ $ $ $ $ $ $ $ $                 ",
"              6 x S U U U U U S x 6               ",
"            = h 3.N.D.D.S.D.D.N.3.h =             ",
"          = Z <.M.H.Y.Y.Y.Y.Y.J.M.<.Z =           ",
"          = ~ l.J.Y.J.J.J.J.J.Y.J.v.~ =           ",
"          = T s.C.J.J.J.J.J.J.J.Z.s.T =           ",
"          % N >.s.C.Y.J.J.J.Y.C.s.>.N %           ",
"          % N [ _ 9.Z.J.J.J.C.w._ [ N &           ",
"          = E | w L a.Z.Y.Z.a.L w | ~ =           ",
"          = ( | = 5 J w.b.w.Z 5 -  .^ =           ",
"          = ( ..- o p 1.f.1.p o > X.) =           ",
"          = / | , 1 H g.K.c.H 1 <  .^ =           ",
"            z Z C } 0.8.e.8.0.} Z V x             ",
"            X s 8.x.u.*.' &.u.x.4.a .             ",
"          @ . g h. .m u.V.u.m o.z.j . +           ",
"        a D G R O.a > R -.R > i O.W L F a         ",
"      > F n.B.;.w % < 7 0 6 , % w ;.C.n.F >       ",
"    6 +.t.y.E h b P @.2.7.2.#.P b h E y.t.O.3     ",
"    0 9.T.p.d 8 [ r.v.f.h.h.v.r.X.8 d p.T.9.0     ",
"    9 6.J.c.j t =.b.v.&.Q &.b.b.:.w j c.Y.6.7     ",
"      c A v 9 = h ! >.>.:.:.,.^ d > 0 v Z c       ",
"      + + + # = r J [ X.X.X.X.J t * # X X X       ",
"            + t %.q.$.y & y @.5.%.i #             ",
"              t n M x -   - x M n r               ",
"                $ $ $       $ $ $                 "
};
