/* XPM */
static char *_641221545914[] = {
/* columns rows colors chars-per-pixel */
"25 25 201 2 ",
"   c #0A0E25",
".  c #0E1026",
"X  c #12162C",
"o  c #12172D",
"O  c #13172D",
"+  c #14182D",
"@  c #15192F",
"#  c #161A31",
"$  c #161B31",
"%  c #171B31",
"&  c #131B37",
"*  c #181C32",
"=  c #1B1D32",
"-  c #1B1D33",
";  c #1B1E33",
":  c #1A1F36",
">  c #201E32",
",  c #1B203A",
"<  c #1D2338",
"1  c #1E223A",
"2  c #19253B",
"3  c #1F2A3F",
"4  c #222134",
"5  c #232336",
"6  c #262335",
"7  c #242436",
"8  c #252436",
"9  c #292135",
"0  c #2C2134",
"q  c #242539",
"w  c #22263F",
"e  c #2D2A3A",
"r  c #2E2C3B",
"t  c #382534",
"y  c #302C3C",
"u  c #312D3E",
"i  c #432A37",
"p  c #472D3C",
"a  c #462F3D",
"s  c #4D2F3A",
"d  c #45313E",
"f  c #222640",
"g  c #242842",
"h  c #252943",
"j  c #2F2D40",
"k  c #2C2E41",
"l  c #282C47",
"z  c #292F4C",
"x  c #2D324D",
"c  c #2D324E",
"v  c #2E324E",
"b  c #323043",
"n  c #383448",
"m  c #3A354A",
"M  c #3F3A4F",
"N  c #213B50",
"B  c #343856",
"V  c #373A56",
"C  c #333A5B",
"Z  c #373B5A",
"A  c #323A5C",
"S  c #333A5C",
"D  c #333B5C",
"F  c #343B5C",
"G  c #353C5C",
"H  c #363C5D",
"J  c #373D5D",
"K  c #393E5D",
"L  c #383E5E",
"P  c #393E5E",
"I  c #3A3F5E",
"U  c #3A3F5F",
"Y  c #4B3340",
"T  c #473A45",
"R  c #483E47",
"E  c #483E4B",
"W  c #413F55",
"Q  c #603C44",
"!  c #643C44",
"~  c #643E46",
"^  c #693B47",
"/  c #34475B",
"(  c #3B405F",
")  c #3E415D",
"_  c #3C405F",
"`  c #3F425F",
"'  c #3B4060",
"]  c #3C4161",
"[  c #3F4260",
"{  c #43445F",
"}  c #4F4759",
"|  c #484D5F",
" . c #524A5A",
".. c #6C454B",
"X. c #61494F",
"o. c #704048",
"O. c #70424F",
"+. c #7B4A4D",
"@. c #624A55",
"#. c #6F5259",
"$. c #7C5A59",
"%. c #424461",
"&. c #444662",
"*. c #4E4C65",
"=. c #4F4D66",
"-. c #534F66",
";. c #4D5264",
":. c #535066",
">. c #545067",
",. c #565267",
"<. c #505466",
"1. c #595469",
"2. c #6D5C66",
"3. c #655C6D",
"4. c #665C6D",
"5. c #4D6B7E",
"6. c #6A6E7F",
"7. c #716471",
"8. c #746673",
"9. c #7B6A75",
"0. c #80424D",
"q. c #845052",
"w. c #8A5152",
"e. c #A05D5A",
"r. c #81605D",
"t. c #A9625E",
"y. c #895F66",
"u. c #836864",
"i. c #82626B",
"p. c #806769",
"a. c #8B6E69",
"s. c #98766C",
"d. c #816977",
"f. c #856F77",
"g. c #887379",
"h. c #897479",
"j. c #947673",
"k. c #9C7B70",
"l. c #9E7B70",
"z. c #9B7D75",
"x. c #B06E69",
"c. c #A27068",
"v. c #A77269",
"b. c #A07D71",
"n. c #A57C73",
"m. c #C1776C",
"M. c #9C817F",
"N. c #A38075",
"B. c #AD8376",
"V. c #B08A7A",
"C. c #B58D7D",
"Z. c #B68D7C",
"A. c #B68D7D",
"S. c #CC8073",
"D. c #3B788C",
"F. c #62818F",
"G. c #5A94A4",
"H. c #78A7B7",
"J. c #7BAEBE",
"K. c #9D8180",
"L. c #888B99",
"P. c #978E93",
"I. c #A48682",
"U. c #BF9482",
"Y. c #B8948B",
"T. c #BD9589",
"R. c #B6939C",
"E. c #9597A5",
"W. c #C49784",
"Q. c #C39884",
"!. c #C69985",
"~. c #C69988",
"^. c #DD9C86",
"/. c #C1959C",
"(. c #E29E87",
"). c #DFA58F",
"_. c #D1A391",
"`. c #D4A693",
"'. c #DCAB96",
"]. c #DDAC96",
"[. c #DEAD97",
"{. c #DFAD97",
"}. c #EAA087",
"|. c #E1A68F",
" X c #E3AF97",
".X c #E8AE95",
"XX c #F8AF93",
"oX c #E9B297",
"OX c #E7B299",
"+X c #E9B399",
"@X c #F4B59A",
"#X c #F2BA9D",
"$X c #F5BB9C",
"%X c #F9BD9E",
"&X c #D1BCB9",
"*X c #FABFA0",
"=X c #FFC4A0",
"-X c #FFC6A2",
";X c #C4C7D1",
":X c #D3D0D9",
">X c None",
/* pixels */
">X>X>X>X>X>X>X>X+ + + + + + + + + >X>X>X>X>X>X>X>X",
">X>X>X>X>X>X>X: g h g g g g h g g : >X>X>X>X>X>X>X",
">X>X>X>X>X>X% f Z U U U K U ( ( Z w % >X>X>X>X>X>X",
">X>X>X>X>X% l B U _ U ( ( ( ( _ U B l % >X>X>X>X>X",
">X>X>X>X>X% x ] ( K ( K U K G K U ] x % >X>X>X>X>X",
">X>X>X>X>X% x ( K ( K U U ( %.{ U ' x % >X>X>X>X>X",
">X>X>X>X>X% x ( ( K U U G *.I.h.G D z % >X>X>X>X>X",
">X>X>X>X>X% x ( K ( U U D 1.{.`.9.8. .= >X>X>X>X>X",
">X>X>X>X>X% x ( ( K ( U C >._.%X+X#XN.5 >X>X>X>X>X",
">X>X>X>X>X% x ] ( G C C D { 2.p.j.+XZ.8 >X>X>X>X>X",
">X>X>X>X>X% x ] _ >.4.4.-._  .m m !.Z.8 >X>X>X>X>X",
">X>X>X>X>X% x G _ M.oX Xg.:.T.a.u U.Z.8 >X>X>X>X>X",
">X>X>X>X>X% w z _ Y.=X}.i.-.'.l.6 v.c.4 >X>X>X>X>X",
">X>X>X>X>X>XX , V M.).S.y.7.{.V.T q.+.= >X>X>X>X>X",
">X>X>X>X>X>X>X>X< { f.)..X{.*X$X!.X.0 >X>X>X>X>X>X",
">X>X>X>X>X>X>X>XX % M n.^.(.B.k.s.R >X>X>X>X>X>X>X",
">X>X>X>X>X>X>X>X# < r Y w.e.Y q k >X>X>X>X>X>X>X>X",
">X>X>X>X>X>X>X>X= 6.L.b i ..^ d.E.&.>X>X>X>X>X>X>X",
">X>X>X>X>X>X>X>X= P.&X@.t s 0./.:X<.. >X>X>X>X>X>X",
">X>X>X>X>X>X>X>X= z.@Xm.Q > O.R.;X;.  >X>X>X>X>X>X",
">X>X>X>X>X>X>X>X= l.-XXX$.2 5.H.J./ . >X>X>X>X>X>X",
">X>X>X>X>X>X>X>X= u.!.Q.r.E F.G.D.N >X>X>X>X>X>X>X",
">X>X>X>X>X>X>X>X>Xe r u ..t.x.#.3 >X>X>X>X>X>X>X>X",
">X>X>X>X>X>X>X>X>X>X>X>Xd ! ! s >X>X>X>X>X>X>X>X>X",
">X>X>X>X>X>X>X>X>X>X>X>X>XX o o >X>X>X>X>X>X>X>X>X"
};
