/* XPM */
static char *_060ff6d3fc740119e92f1f95c9850e8vFmjysa3dwyjeXXx[] = {
/* columns rows colors chars-per-pixel */
"25 25 252 2 ",
"   c None",
".  c #5C3543",
"X  c #5D3543",
"o  c #5D3643",
"O  c #5E3643",
"+  c #673A45",
"@  c #693B46",
"#  c #6A3C46",
"$  c #6B3C46",
"%  c #6D3E47",
"&  c #6F3F47",
"*  c #703F48",
"=  c #6F4047",
"-  c #704147",
";  c #714048",
":  c #744049",
">  c #764149",
",  c #78424A",
"<  c #79434A",
"1  c #7A434A",
"2  c #784449",
"3  c #79454A",
"4  c #7A444A",
"5  c #7B444A",
"6  c #7A454A",
"7  c #7B454A",
"8  c #7A464A",
"9  c #7B464A",
"0  c #7C454A",
"q  c #7D454B",
"w  c #7C464A",
"e  c #7D464A",
"r  c #7C474A",
"t  c #7D464B",
"y  c #7E464B",
"u  c #7F464B",
"i  c #7E474B",
"p  c #7F474B",
"a  c #794949",
"s  c #7A4949",
"d  c #7A4A49",
"f  c #7E494A",
"g  c #7F484B",
"h  c #7E494B",
"j  c #80494B",
"k  c #81494B",
"l  c #824E4B",
"z  c #81494C",
"x  c #82494C",
"c  c #834B4C",
"v  c #84494D",
"b  c #85494D",
"n  c #854B4D",
"m  c #864B4D",
"M  c #844C4C",
"N  c #854D4C",
"B  c #864D4C",
"V  c #874C4D",
"C  c #864D4D",
"Z  c #864E4C",
"A  c #884F4D",
"S  c #8A4D4E",
"D  c #8A4E4E",
"F  c #8B4F4E",
"G  c #8D4F4E",
"H  c #8D4F4F",
"J  c #83504B",
"K  c #87544B",
"L  c #85514C",
"P  c #87524C",
"I  c #8D504F",
"U  c #8E504F",
"Y  c #8E514F",
"T  c #8D534E",
"R  c #89544C",
"E  c #8C564D",
"W  c #8E594D",
"Q  c #8F594D",
"!  c #90514F",
"~  c #92534F",
"^  c #91574E",
"/  c #92584F",
"(  c #93584F",
")  c #915B4E",
"_  c #94594F",
"`  c #945D4E",
"'  c #915150",
"]  c #935350",
"[  c #955450",
"{  c #955550",
"}  c #955451",
"|  c #975551",
" . c #965750",
".. c #985651",
"X. c #995751",
"o. c #9A5752",
"O. c #985A50",
"+. c #9A5B51",
"@. c #9B5852",
"#. c #9D5952",
"$. c #9D5853",
"%. c #9E5953",
"&. c #9C5A52",
"*. c #9D5B52",
"=. c #9E5A53",
"-. c #9F5A53",
";. c #9F5B53",
":. c #995D50",
">. c #9A5C51",
",. c #9A5E50",
"<. c #9D5F51",
"1. c #A05A53",
"2. c #A05B53",
"3. c #A15B53",
"4. c #A05C53",
"5. c #A15C53",
"6. c #A25C53",
"7. c #A25D53",
"8. c #A35D53",
"9. c #A35E53",
"0. c #A25F53",
"q. c #A25C54",
"w. c #A45F54",
"e. c #A55F54",
"r. c #9A624F",
"t. c #9F6152",
"y. c #9D6550",
"u. c #9E6550",
"i. c #9E6650",
"p. c #9F6650",
"a. c #9F6750",
"s. c #A16352",
"d. c #A06750",
"f. c #A36552",
"g. c #A56652",
"h. c #A56054",
"j. c #A66054",
"k. c #A86254",
"l. c #A96354",
"z. c #A96454",
"x. c #AA6555",
"c. c #AB6655",
"v. c #AC6655",
"b. c #AD6655",
"n. c #AD6755",
"m. c #A06850",
"M. c #A76852",
"N. c #A96853",
"B. c #AB6C53",
"V. c #AA6854",
"C. c #AE6855",
"Z. c #AE6955",
"A. c #AF6A55",
"S. c #AF6B55",
"D. c #B06B56",
"F. c #B26E55",
"G. c #B16C56",
"H. c #B26C56",
"J. c #B26D56",
"K. c #B36D56",
"L. c #B46D56",
"P. c #B46E56",
"I. c #B46F56",
"U. c #B56F56",
"Y. c #B17054",
"T. c #B27155",
"R. c #B57355",
"E. c #B57056",
"W. c #B67056",
"Q. c #B67057",
"!. c #B67157",
"~. c #B77157",
"^. c #B67455",
"/. c #B87157",
"(. c #B97357",
"). c #BA7357",
"_. c #B97457",
"`. c #BA7457",
"'. c #BA7557",
"]. c #BB7557",
"[. c #B97656",
"{. c #BA7657",
"}. c #BC7657",
"|. c #BB7558",
" X c #BC7558",
".X c #BC7658",
"XX c #BC7758",
"oX c #BD7758",
"OX c #BD7858",
"+X c #BE7858",
"@X c #BF7958",
"#X c #C07958",
"$X c #C07A58",
"%X c #C17A58",
"&X c #C17B58",
"*X c #C27A59",
"=X c #C27B59",
"-X c #C27D58",
";X c #C27C59",
":X c #C47D59",
">X c #C57E59",
",X c #C67E59",
"<X c #C67F59",
"1X c #C58058",
"2X c #C88259",
"3X c #C9815A",
"4X c #C9825A",
"5X c #CA825A",
"6X c #CB835A",
"7X c #CA8459",
"8X c #CC845A",
"9X c #CD845A",
"0X c #CD855A",
"qX c #CE855B",
"wX c #CE865B",
"eX c #CF865B",
"rX c #CF875B",
"tX c #CF885A",
"yX c #D0885A",
"uX c #D0885B",
"iX c #D28A5B",
"pX c #D38A5B",
"aX c #D48C5B",
"sX c #D48B5C",
"dX c #D68C5C",
"fX c #D78D5C",
"gX c #D78E5C",
"hX c #D88E5C",
"jX c #D88F5C",
"kX c #DA915C",
"lX c #DA905D",
"zX c #DC925D",
"xX c #DD925D",
"cX c #DD935D",
"vX c #DE935D",
"bX c #DF955D",
"nX c #E0965D",
"mX c #E1965E",
"MX c #E59A5E",
"NX c #E69A5F",
"BX c #E69B5F",
"VX c #E79B5F",
"CX c #E89C5F",
"ZX c #E99D5F",
"AX c #EA9E5F",
"SX c #EB9E5F",
"DX c #EB9F5F",
"FX c #EB9E60",
"GX c #EB9F60",
"HX c #EEA160",
"JX c #F2A461",
"KX c #F6A761",
/* pixels */
"    . . . . . . . . . . . . + . . . . . . . .     ",
"  K p.p.p.p.p.p.p.p.p.p.p.r.W a = W m.p.m.r.R 5   ",
". p.ZXZXBXBXBXBXVXVXVXVXBXxX-X:.M wXHXCXZXvX%XK . ",
". d.ZXjX6XwXwXwXwX6XeXwX%XL.b.~ M tXZXtXwX:Xv.f . ",
". p.BX6X}.}.+X+XOXL.K.oXC.#.$.G j :XfX%X!.v.;.5 O ",
". p.BXwXoX+XoX+XOXC.c.(.D.6.6.G j B.-X`.c.w.;.s O ",
". p.BXwXW.c.l.D.OX`.L.v.e.6.6.~ p M @.c.j.2.;.5 O ",
". p.CXwXK.6.$.l.oX}.K.9.$.$.| S 5 : p U | o.*.5 O ",
". r.BXwXK.5.$.c.`.D.5.5.5.@.M 5 1 5 f u u v o.p o ",
". ` wX`.h.5.$.w.c.h.5.$.5.$.x : p B.`.d.M 5 M = o ",
"+ f V.*.| | $.5.6.5.6.5.$.] p j :.iXbX;Xt.M x = O ",
". = x x j j | 2.$.5.$.5.' u 1 d.jXrX;X+X`.S.$.3 o ",
". K T.^.W.T.O.S I I U U p p g.6XgX1X+X+X;X|.j.6 o ",
". r.DXZXFXbXM.s 5 5 5 5 p :.aXlX+X+X+X%X+XK.w.6 o ",
". m.ZXfX7X6X`.t.f : 1 : M.aXwX:X+X;X%X+XC.j.;.6 o ",
". p.BX6X`.+X;XK.Y u v d.iXZX6XXX+X+X|.J.j.;.;.s o ",
". r.VXiX%X%X+XW.6.x ^ lXJXCX1X+X+X;XW.5.5.5.$.5 o ",
". d.ZXZXiX%X+X/.w.v ] bXKXCX6X+X+X;XW.5.6.5.w.s o ",
". p.FXBXiX;X%X/.w.v ] bXDXlX1X+X+X`.C.$.2.*.$.5 o ",
". d.BXwX%X+X+XW.;.x ) bXcX;X+X+X`.c.*.w.w.w.*.5 o ",
". ) wX;X+X+XL.h.I 5 / bXbX|.C.c.l.w.;.;.$.$.5.5 O ",
". R +X|.`.W.5.U 5 : T 1X6XW.j.2.2.2.2.w.5.w.*.5 O ",
". R _.c.h.*.I 5 5 5 p M | *.*.2.;.;.2.;.;.;.;.f O ",
"  s K f 5 5 = + # # + + - 5 5 s 5 5 s 5 s 5 5 ;   ",
"    . . . O + . . . . O O O O O . . . O O O O     "
};
