/* XPM */
static char *_641222628329[] = {
/* columns rows colors chars-per-pixel */
"25 25 164 2 ",
"   c #0D1128",
".  c #0E1228",
"X  c #0F1328",
"o  c #0F1329",
"O  c #0F132A",
"+  c #101429",
"@  c #11152B",
"#  c #12162C",
"$  c #13172D",
"%  c #151930",
"&  c #161B33",
"*  c #181C33",
"=  c #181C34",
"-  c #1A1E35",
";  c #1A1E36",
":  c #1D2137",
">  c #1E2238",
",  c #202339",
"<  c #202439",
"1  c #222740",
"2  c #262B46",
"3  c #272B46",
"4  c #272B47",
"5  c #2B2E43",
"6  c #2A2E46",
"7  c #2C2F44",
"8  c #282D48",
"9  c #2A2E49",
"0  c #2C3044",
"q  c #2B314F",
"w  c #2F334D",
"e  c #30344D",
"r  c #2F3450",
"t  c #323756",
"y  c #333856",
"u  c #373C59",
"i  c #3A3F5E",
"p  c #3E4154",
"a  c #3A405F",
"s  c #3F445E",
"d  c #40445A",
"f  c #494D65",
"g  c #464B69",
"h  c #4F536B",
"j  c #505364",
"k  c #555869",
"l  c #5A5C6D",
"z  c #484E72",
"x  c #494F73",
"c  c #4A5073",
"v  c #4D5375",
"b  c #53597A",
"n  c #5D6074",
"m  c #5D617A",
"M  c #606374",
"N  c #626679",
"B  c #63677C",
"V  c #656878",
"C  c #67697A",
"Z  c #565C81",
"A  c #575D83",
"S  c #5F6589",
"D  c #60678D",
"F  c #656B8A",
"G  c #676C88",
"H  c #6D7080",
"J  c #6E7080",
"K  c #6E7180",
"L  c #6B708D",
"P  c #727588",
"I  c #70748E",
"U  c #646B95",
"Y  c #696F94",
"T  c #6A719B",
"R  c #6C729B",
"E  c #727690",
"W  c #747890",
"Q  c #73799F",
"!  c #7A7E98",
"~  c #777EA6",
"^  c #7B809F",
"/  c #7B81A6",
"(  c #7B81A8",
")  c #7C82A8",
"_  c #7D83A9",
"`  c #7E84AA",
"'  c #858795",
"]  c #8185A0",
"[  c #8389AA",
"{  c #8388AB",
"}  c #878CAB",
"|  c #868CAD",
" . c #888DA9",
".. c #8C91B3",
"X. c #8F94B2",
"o. c #9195B0",
"O. c #9297B5",
"+. c #9398B6",
"@. c #989BB1",
"#. c #9398B9",
"$. c #959ABA",
"%. c #989DB9",
"&. c #9A9EBC",
"*. c #9B9FBD",
"=. c #9EA1B9",
"-. c #9EA2BE",
";. c #9EA3BF",
":. c #9FA3BF",
">. c #A5A7B3",
",. c #B1B3BE",
"<. c #9DA2C1",
"1. c #A1A5C0",
"2. c #A1A5C2",
"3. c #A3A7C2",
"4. c #A4A8C3",
"5. c #A5A9C3",
"6. c #A6AAC4",
"7. c #A7ABC6",
"8. c #ACAFC1",
"9. c #A8ACC4",
"0. c #A9ADC6",
"q. c #AAAEC6",
"w. c #AAAEC7",
"e. c #ABAEC7",
"r. c #AFB2C1",
"t. c #AFB2C7",
"y. c #ADB0C8",
"u. c #ADB1C9",
"i. c #B0B3C8",
"p. c #B6B9D0",
"a. c #B8BBD1",
"s. c #BEC0D2",
"d. c #BEC1D7",
"f. c #C5C7D2",
"g. c #C1C4D5",
"h. c #CBCDD7",
"j. c #C2C4D8",
"k. c #C9CBDA",
"l. c #CBCDDB",
"z. c #CBCDDC",
"x. c #CCCEDC",
"c. c #CDCFDD",
"v. c #CFD1DE",
"b. c #D2D3DC",
"n. c #D3D4E0",
"m. c #D5D6E1",
"M. c #D6D8E3",
"N. c #D7D8E3",
"B. c #DCDDE5",
"V. c #DDDEE6",
"C. c #DDDEE7",
"Z. c #DEDFE9",
"A. c #DFE0E8",
"S. c #E0E1E9",
"D. c #E1E2E9",
"F. c #E1E2EA",
"G. c #E3E3EA",
"H. c #E2E3EB",
"J. c #E3E4EB",
"K. c #E4E5EB",
"L. c #E6E7EC",
"P. c #E7E7ED",
"I. c #E5E6F2",
"U. c None",
/* pixels */
"U.U.U.U.U.U.U.U.# # # # # # # # @ U.U.U.U.U.U.U.U.",
"U.U.U.U.U.U.U.6 h N J J J J J N h 6 U.U.U.U.U.U.U.",
"U.U.U.U.U.U.> f =.z.V.V.B.V.V.z.=.f > U.U.U.U.U.U.",
"U.U.U.U.U.> m @.l.Z.H.H.H.H.H.A.c.@.m > U.U.U.U.U.",
"U.U.U.U.U.> E d.A.G.A.A.A.A.A.H.H.d.E > U.U.U.U.U.",
"U.U.U.U.U.> I p.n.V.A.A.A.A.A.Z.b.p.L , U.U.U.U.U.",
"U.U.U.U.U.> W 2.+.s.H.A.H.A.G.s.O.2.W > U.U.U.U.U.",
"U.U.U.U.U.: G ../ 9.v.v.l.v.v.9.) ..G : U.U.U.U.U.",
"U.U.U.U.U.- v _ &.5.0.0.0.0.0.5.&._ v - U.U.U.U.U.",
"U.U.U.U.U.- x / ;.3.0.g.l.g.0.5.;.( x - U.U.U.U.U.",
"U.U.U.U.U.- c _ ;.2.u.c.N.c.u.2.;._ c - U.U.U.U.U.",
"U.U.U.U.U.- c ) -.5.5.e.t.0.5.5.-.) c - U.U.U.U.U.",
"U.U.U.U.U.U.y b { <.9.2.2.2.0.<.[ b y U.U.U.U.U.U.",
"U.U.U.U.U.U.O 2 Z ! O.%.-.%.O.! Z 2 O U.U.U.U.U.U.",
"U.U.U.U.U.O O & 1 6 s Y ~ Y s 6 1 % O   U.U.U.U.U.",
"U.U.U.U.p B J l u r g } -.} g r u n J C p U.U.U.U.",
"U.U.U.< C h.b.8.Q U [ l.G.l.` U ~ 9.b.h.C < U.U.U.",
"U.U.6 ' r.t.P B O.#.5.N.P.N.7.$.X.B P t.r.' 0 U.U.",
"U.U.0 ,.I.i.d e | #.2.m.P.n.>.#.} w s t.I.,.0 U.U.",
"U.U.0 >.H.f.j 4 S T | c.G.v.| T S 8 j f.H.>.0 U.U.",
"U.U.U.k n l 0 * r F &.a.j.a.&.F w - 0 l n k U.U.U.",
"U.U.U.      @ * 9 L +.] ! ] +.L 9 * @       U.U.U.",
"U.U.U.U.U.U.@ 6 A R S e , e S R A 8 @ U.U.U.U.U.U.",
"U.U.U.U.U.U.U.4 i a t & U.& y a a 2 U.U.U.U.U.U.U.",
"U.U.U.U.U.U.U.U.# $ $ U.U.U.$ $ # U.U.U.U.U.U.U.U."
};
