/* XPM */
static char *_641222617111[] = {
/* columns rows colors chars-per-pixel */
"25 25 239 2 ",
"   c #090D24",
".  c #140C22",
"X  c #101429",
"o  c #12162C",
"O  c #13172D",
"+  c #14182E",
"@  c #15192F",
"#  c #171B32",
"$  c #181C32",
"%  c #191D33",
"&  c #1A1E33",
"*  c #191E35",
"=  c #1A1E34",
"-  c #1B1E34",
";  c #1A1E35",
":  c #1B1F36",
">  c #1B2037",
",  c #1C2035",
"<  c #1E2238",
"1  c #1F2339",
"2  c #1C223A",
"3  c #20243A",
"4  c #21253A",
"5  c #22253B",
"6  c #22263B",
"7  c #3C263C",
"8  c #42152C",
"9  c #272C46",
"0  c #282C41",
"q  c #2A2E42",
"w  c #2B2E43",
"e  c #2B2F43",
"r  c #2A2F4A",
"t  c #2C3044",
"y  c #2C3047",
"u  c #2B304D",
"i  c #2D324F",
"p  c #33374E",
"a  c #32384F",
"s  c #363A4D",
"d  c #313754",
"f  c #393E57",
"g  c #373D5D",
"h  c #3D4052",
"j  c #3C4053",
"k  c #3B4060",
"l  c #474A5D",
"z  c #424660",
"x  c #434761",
"c  c #404564",
"v  c #404565",
"b  c #444967",
"n  c #484C64",
"m  c #4B4F6B",
"M  c #4F536B",
"N  c #515465",
"B  c #515568",
"V  c #50546C",
"C  c #52566F",
"Z  c #494F73",
"A  c #4C5271",
"S  c #4C5377",
"D  c #535771",
"F  c #525775",
"G  c #515971",
"H  c #565A72",
"J  c #575B72",
"K  c #585B70",
"L  c #525879",
"P  c #555A7B",
"I  c #5E6172",
"U  c #5C6075",
"Y  c #5F637B",
"T  c #5B607F",
"R  c #676A79",
"E  c #66697D",
"W  c #686B7A",
"Q  c #696C7C",
"!  c #696C7D",
"~  c #696C7F",
"^  c #983A4F",
"/  c #565D83",
"(  c #5A6187",
")  c #666B85",
"_  c #6A6E85",
"`  c #61688F",
"'  c #6D7080",
"]  c #6E7181",
"[  c #6F7281",
"{  c #6E728A",
"}  c #6F758E",
"|  c #747786",
" . c #757786",
".. c #72768F",
"X. c #636A94",
"o. c #697095",
"O. c #6C729C",
"+. c #737790",
"@. c #747891",
"#. c #707599",
"$. c #70769D",
"%. c #72799F",
"&. c #747AA1",
"*. c #797FA5",
"=. c #8A6F83",
"-. c #7E808F",
";. c #7D8092",
":. c #7E839A",
">. c #7B81A6",
",. c #7B82A8",
"<. c #7C82A9",
"1. c #828495",
"2. c #828596",
"3. c #838697",
"4. c #848797",
"5. c #80849C",
"6. c #84879C",
"7. c #898B98",
"8. c #8A8C99",
"9. c #8A8D9A",
"0. c #8B8D9A",
"q. c #8E919E",
"w. c #8387A0",
"e. c #868AA2",
"r. c #8086AA",
"t. c #8187AA",
"y. c #858BAD",
"u. c #868CAF",
"i. c #888DA9",
"p. c #8A8EA9",
"a. c #888EAF",
"s. c #918BA2",
"d. c #8D90A2",
"f. c #8D91A9",
"g. c #9598A7",
"h. c #959BA9",
"j. c #999BA8",
"k. c #9A9CA8",
"l. c #9A9CA9",
"z. c #9C9EAB",
"x. c #9D9FAE",
"c. c #888DB1",
"v. c #898FB0",
"b. c #8D93B3",
"n. c #8F94B4",
"m. c #9397B5",
"M. c #9599B1",
"N. c #9398B7",
"B. c #9499B5",
"V. c #969AB5",
"C. c #9A9DB2",
"Z. c #9599B8",
"A. c #979CBB",
"S. c #999EBB",
"D. c #9A9EBC",
"F. c #9A9FBC",
"G. c #9FA3B9",
"H. c #9FA2BB",
"J. c #9BA0BD",
"K. c #9EA2BF",
"L. c #A3A6B6",
"P. c #A4A6B6",
"I. c #A5A8BB",
"U. c #ACADB8",
"Y. c #AEAFBB",
"T. c #B6A4BB",
"R. c #CB90A0",
"E. c #CCABB9",
"W. c #9FA4C0",
"Q. c #A1A5C1",
"!. c #A2A6C1",
"~. c #A3A7C2",
"^. c #A3A7C3",
"/. c #A6A9C1",
"(. c #A4A8C3",
"). c #A5A9C3",
"_. c #A7AAC2",
"`. c #A5A9C4",
"'. c #A5A9C5",
"]. c #A6AAC4",
"[. c #A7ABC5",
"{. c #A7ABC6",
"}. c #A9ADC4",
"|. c #A8ACC5",
" X c #A8ACC6",
".X c #A8ACC7",
"XX c #ABAEC7",
"oX c #AAAECA",
"OX c #AEB0C1",
"+X c #ADB0C9",
"@X c #AEB2CA",
"#X c #B6B8C6",
"$X c #B4B7CC",
"%X c #B7BACB",
"&X c #B6B9CE",
"*X c #BABCC9",
"=X c #BDBFC9",
"-X c #BEBFCB",
";X c #B8BBD0",
":X c #BABDD1",
">X c #BABDD2",
",X c #C1C3CD",
"<X c #C4C5CE",
"1X c #C0C3D5",
"2X c #C2C4D5",
"3X c #C1C4D6",
"4X c #CDCED7",
"5X c #C6C8DA",
"6X c #C9CBDA",
"7X c #CBCDDB",
"8X c #CBCDDD",
"9X c #D0D1DF",
"0X c #D5D6E1",
"qX c #D5D7E4",
"wX c #D6D8E3",
"eX c #D7D8E4",
"rX c #D7D9E7",
"tX c #D8D9E4",
"yX c #DBDCE5",
"uX c #DCDDE5",
"iX c #DCDDE6",
"pX c #DDDEE6",
"aX c #DDDEE7",
"sX c #DEDFE7",
"dX c #DCDDE9",
"fX c #DFE0E8",
"gX c #E0E1E8",
"hX c #E0E1E9",
"jX c #E1E2E9",
"kX c #E1E2EA",
"lX c #E2E3EB",
"zX c #E3E4EC",
"xX c #E3E5ED",
"cX c #E4E5EC",
"vX c #E5E6EE",
"bX c #E6E7EE",
"nX c #E9EAF2",
"mX c #EBEBF3",
"MX c None",
/* pixels */
"MXMXMXMXMXMXMXMXo o + + o O O o o MXMXMXMXMXMXMXMX",
"MXMXMXMXMXMXMXy C C K Q [ ~ ~ ~ Q s MXMXMXMXMXMXMX",
"MXMXMXMXMXMX< n B.[.$X9XjXuXjXcX4XI 6 MXMXMXMXMXMX",
"MXMXMXMXMX< Y p.^.1XtXlXjXjXcXcXuX=X1.3 MXMXMXMXMX",
"MXMXMXMXMX< @.oX'.-X7X7X9XjXjXjXfXmXz.6 MXMXMXMXMX",
"MXMXMXMXMX< ..{.^.(.(.(.2XpXuXfXfXvXl.3 MXMXMXMXMX",
"MXMXMXMXMX< ...X(.(.(.^..X&X:X7XdXbXl.6 MXMXMXMXMX",
"MXMXMXMXMX< +.^.N.n.N.W.$X.X6.C.0XxXl.5 MXMXMXMXMX",
"MXMXMXMXMX3 ..A.&.O.>.S.5X=Xl M (.qXl.5 MXMXMXMXMX",
"MXMXMXMXMX< P u.u.v.u.<.-X2Xf 2 G L.6.< MXMXMXMXMX",
"MXMXMXMXMX; Z <.W.[.S.>. X#Xh . 7 s.:.3 MXMXMXMXMX",
"MXMXMXMXMX; Z >.K.{.^.S..Xh.a 8 ^ E.h.3 MXMXMXMXMX",
"MXMXMXMXMX; d L t.c.b.'..XN.) =.R.T.} , MXMXMXMXMX",
"MXMXMXMXMXMXo r / X.$.p.L.oXoX%X*XN.P > MXMXMXMXMX",
"MXMXMXMXMXMXMXMX9 S ( f 1.eXdXh.N P.d.3 MXMXMXMXMX",
"MXMXMXMXMXMXMXMX+ F #.b J 7.0.N , Q  .3 MXMXMXMXMX",
"MXMXMXMXMXMXMXMX& _ S.o.c q q 5 # # ; MXMXMXMXMXMX",
"MXMXMXMXMXMXMXMX& 4.OXz m :.x.R $   MXMXMXMXMXMXMX",
"MXMXMXMXMXMXMXMX& q.<XK D e.2X3.& MXMXMXMXMXMXMXMX",
"MXMXMXMXMXMXMXMX& 9.wX(.H p f.{ & MXMXMXMXMXMXMXMX",
"MXMXMXMXMXMXMXMX& 9.nXrX~ q P.3.& MXMXMXMXMXMXMXMX",
"MXMXMXMXMXMXMXMX;  .Y.U.E z I.;.& MXMXMXMXMXMXMXMX",
"MXMXMXMXMXMXMXMXMXq q y b ` %.A # MXMXMXMXMXMXMXMX",
"MXMXMXMXMXMXMXMXMXMXMXMXu k g i MXMXMXMXMXMXMXMXMX",
"MXMXMXMXMXMXMXMXMXMXMXMXMX+ o + MXMXMXMXMXMXMXMXMX"
};
